<?xml version="1.0" encoding="utf-8"?>
<!-- Generator: Adobe Illustrator 21.1.0, SVG Export Plug-In . SVG Version: 6.00 Build 0)  -->
<svg version="1.1" id="Layer_1" xmlns="http://www.w3.org/2000/svg" xmlns:xlink="http://www.w3.org/1999/xlink" x="0px" y="0px"
	 viewBox="0 0 457 444" style="enable-background:new 0 0 457 444;" xml:space="preserve">
<style type="text/css">
	.st0{fill:#222222;}
	.st1{fill:#127991;}
	.st2{fill:#31A2BC;}
	.st3{fill:#1C98BA;}
	.st4{fill:#16BAD6;}
	.st5{fill:#79D6E0;}
	.st6{fill:#212221;}
	.st7{enable-background:new    ;}
</style>
<g>
	<path class="st0" d="M111.9,307.3l115.4,38.4c0.3,0.1,0.8,0.2,1.2,0.2c0.2,0,0.7-0.1,1-0.2c0.1,0,0.3-0.1,0.4-0.1l115.5-38.4
		c0.1-0.1,0.2-0.2,0.4-0.2l0.2-0.1c0.3-0.1,0.7-0.5,1-0.9l0.1-0.1c0.1-0.1,0.3-0.3,0.4-0.4l0,0c0.1-0.2,0.2-0.4,0.4-0.5
		c0.1-0.3,0.2-0.8,0.2-1.2c0-0.2,0-0.6,0.2-1V87.1h-0.2v-2.5c0-0.5-0.2-1.3-0.4-1.8c-0.1-0.1-0.1-0.2-0.2-0.3c-0.5-0.8-0.8-1-0.9-1
		l-0.4-0.2l-0.3-0.3l-0.1-0.1l-63.4-38.1c-0.4-0.1-0.7-0.3-1-0.6c-0.4-0.2-0.9-0.3-1.3-0.3h-103c-0.6,0-1.1,0.2-1.4,0.3l-0.8,0.5
		L110.8,81l-0.1,0.1l-0.2,0.2l-0.2,0.1c-0.3,0.2-0.6,0.5-0.9,1c-0.1,0.3-0.2,0.5-0.4,0.6c-0.2,0.5-0.3,1-0.3,1.6v218.1
		c0.2,0.4,0.2,0.8,0.2,1c0,0.5,0.1,1,0.4,1.7l0.4,0.4c0.6,0.6,1,1,1.4,1.1C111.3,306.9,111.6,307.1,111.9,307.3z M224.6,260.9H181
		V111.5l43.6,14.6L224.6,260.9L224.6,260.9z M283.9,52.9L335,83.6l-51.1,17.1V52.9z M283.9,108.9L340.4,90v206.5l-56.5-33.9V108.9z
		 M335,302.6l-102.6,34.1v-67.9h46.5L335,302.6z M232.4,260.9V126.1l43.6-14.6v149.4H232.4z M181,49.8h95v53.3L228.4,119l-47.5-15.9
		V49.8H181z M178.2,268.8h46.5v67.9l-102.6-34.1L178.2,268.8z M173.1,52.9v47.6l-51.2-17.1L173.1,52.9z M116.6,90l56.5,18.9v153.7
		l-56.5,33.9V90z"/>
	<g>
		<path class="st1" d="M321.4,240.8c0-0.2-0.2-0.2-0.2-0.3c-0.3-0.6-0.8-1.2-1.4-1.7c-0.2-0.2-0.2-0.2-0.3-0.3l-49-31.3
			c-0.2,0-0.2,0-0.3,0c-0.6-0.5-1.4-0.6-2.3-0.6h-78.4c-0.8,0-1.6,0.3-2.3,0.6c-0.2,0-0.2,0-0.3,0l-49,31.3c-0.2,0-0.2,0.2-0.2,0.3
			c-0.6,0.5-1.1,0.9-1.4,1.7c0,0.2-0.2,0.2-0.2,0.3c-0.3,0.6-0.5,1.4-0.5,2.2v34.8c0,0.2,0,0.2,0,0.2c0,0.8,0.2,1.7,0.6,2.5
			c0,0.2,0.2,0.2,0.2,0.2c0.2,0.2,0.2,0.2,0.3,0.3c0.6,0.8,1.2,1.2,2,1.6c0.2,0,0.2,0.2,0.2,0.2l88.1,31.3c0.5,0.2,1.1,0.3,1.6,0.3
			s1.1-0.2,1.6-0.3l88.1-31.3c0.2,0,0.2-0.2,0.3-0.3c0.6-0.3,1.1-0.8,1.6-1.2c0.2-0.2,0.5-0.3,0.6-0.6l0.2-0.2
			c0.5-0.8,0.6-1.6,0.6-2.5c0-0.2,0.2-0.2,0.2-0.3v-34.8C321.8,242.2,321.7,241.4,321.4,240.8z"/>
		<path class="st2" d="M137.5,238.6l49.3-31.5l2.2-0.7l80.7,0.2l43.9,28.2c0,0,7.5,4.2,6.8,4.8c-0.6,0.6-91.7,27.7-91.7,27.7
			L137.5,238.6z"/>
	</g>
	<g>
		<path class="st3" d="M321.2,186.4c0-0.2-0.2-0.2-0.2-0.3c-0.3-0.6-0.8-1.2-1.4-1.7c-0.2-0.2-0.2-0.2-0.3-0.3l-49-31.3
			c-0.2,0-0.2,0-0.3,0c-0.6-0.5-1.4-0.6-2.3-0.6h-78.4c-0.8,0-1.6,0.3-2.3,0.6c-0.2,0-0.2,0-0.3,0l-49,31.3c-0.2,0-0.2,0.2-0.2,0.3
			c-0.6,0.5-1.1,0.9-1.4,1.7c0,0.2-0.2,0.2-0.2,0.3c-0.3,0.6-0.5,1.4-0.5,2.2v37.8c0,0.2,0,0.2,0,0.2c0,0.8,0.2,1.7,0.6,2.5
			c0,0.2,0.2,0.2,0.2,0.2c0.2,0.2,0.2,0.2,0.3,0.3c0.6,0.8,1.2,1.2,2,1.6c0.2,0,0.2,0.2,0.2,0.2l88.1,28.3c0.5,0.2,1.1,0.3,1.6,0.3
			s1.1-0.2,1.6-0.3l88.1-27.3c0.2,0,0.2-0.2,0.3-0.3c0.6-0.3,1.1-0.8,1.6-1.2c0.2-0.2,0.5-0.3,0.6-0.6l0.2-0.2
			c0.5-0.8,0.6-1.6,0.6-2.5c0-0.2,0.2-0.2,0.2-0.3v-38.8C321.6,187.8,321.5,187,321.2,186.4z"/>
		<path class="st2" d="M137.3,184.2l49.3-31.5l2.2-0.7l80.7,0.2l43.9,28.2c0,0,7.5,4.2,6.8,4.8c-0.6,0.6-91.7,27.7-91.7,27.7
			L137.3,184.2z"/>
	</g>
	<g>
		<path class="st4" d="M321.2,132.4c0-0.2-0.2-0.2-0.2-0.3c-0.3-0.6-0.8-1.2-1.4-1.7c-0.2-0.2-0.2-0.2-0.3-0.3l-49-31.3
			c-0.2,0-0.2,0-0.3,0c-0.6-0.5-1.4-0.6-2.3-0.6h-78.4c-0.8,0-1.6,0.3-2.3,0.6c-0.2,0-0.2,0-0.3,0l-49,31.3c-0.2,0-0.2,0.2-0.2,0.3
			c-0.6,0.5-1.1,0.9-1.4,1.7c0,0.2-0.2,0.2-0.2,0.3c-0.3,0.6-0.5,1.4-0.5,2.2v36.8c0,0.2,0,0.2,0,0.2c0,0.8,0.2,1.7,0.6,2.5
			c0,0.2,0.2,0.2,0.2,0.2c0.2,0.2,0.2,0.2,0.3,0.3c0.6,0.8,1.2,1.2,2,1.6c0.2,0,0.2,0.2,0.2,0.2l88.1,26.3c0.5,0.2,1.1,0.3,1.6,0.3
			s1.1-0.2,1.6-0.3l88.1-26.3c0.2,0,0.2-0.2,0.3-0.3c0.6-0.3,1.1-0.8,1.6-1.2c0.2-0.2,0.5-0.3,0.6-0.6l0.2-0.2
			c0.5-0.8,0.6-1.6,0.6-2.5c0-0.2,0.2-0.2,0.2-0.3v-36.8C321.6,133.8,321.5,133,321.2,132.4z"/>
		<path class="st5" d="M137.3,130.2l49.3-31.5l2.2-0.7l80.7,0.2l43.9,28.2c0,0,7.5,4.2,6.8,4.8c-0.6,0.6-91.7,27.7-91.7,27.7
			L137.3,130.2z"/>
	</g>
	<polygon class="st6" points="114.5,89.3 228.5,127.5 344.9,88.5 337,82.8 228.5,119 119.7,82.7 	"/>
</g>
<polygon class="st6" points="224.6,122.3 232.4,121.3 232.1,339 224.9,342 "/>
<text transform="matrix(1 0 0 1 -1246.5 -1990.3589)" class="st6" style="font-family:'Quantico-Regular'; font-size:62.3955px;">RESERVOIR</text>
<g>
	<path class="st0" d="M71.2,397.9v-33.2c0-0.7,0.3-1.3,0.9-1.7c0.6-0.4,1.4-0.6,2.4-0.6c0.9,0,1.6,0.2,2.2,0.6
		c0.6,0.4,0.9,1,0.9,1.7v3.8c1-1.8,2.4-3.4,4.2-4.7c1.9-1.3,3.9-1.9,6.2-1.9h2.7c0.7,0,1.3,0.3,1.8,0.9c0.5,0.6,0.8,1.3,0.8,2.1
		c0,0.8-0.3,1.5-0.8,2.1c-0.5,0.6-1.1,0.9-1.8,0.9H88c-2.7,0-5.1,1.1-7.1,3.3c-2,2.2-3,5-3,8.5V398c0,0.6-0.3,1.1-1,1.6
		c-0.7,0.5-1.5,0.8-2.4,0.8c-0.9,0-1.7-0.2-2.3-0.7C71.5,399.1,71.2,398.6,71.2,397.9z"/>
	<path class="st0" d="M102.5,385.5v-8.4c0-4.1,1.6-7.7,4.7-10.6c3.1-3,6.9-4.5,11.2-4.5c4.2,0,7.8,1.4,10.8,4.2s4.6,6.3,4.6,10.5
		c0,1.6-0.2,2.8-0.6,3.8c-0.4,0.9-0.9,1.6-1.7,2c-0.8,0.4-1.5,0.7-2.2,0.8c-0.7,0.1-1.6,0.2-2.7,0.2h-17.5v2.4c0,2.9,1.1,5.3,3.2,7
		c2.1,1.8,4.8,2.6,8.2,2.6c1.8,0,3.3-0.3,4.6-0.8c1.3-0.5,2.4-1.1,3.2-1.6c0.8-0.5,1.4-0.8,1.9-0.8c0.7,0,1.4,0.3,1.9,1
		c0.5,0.7,0.8,1.3,0.8,2c0,1.2-1.2,2.5-3.6,3.8c-2.4,1.3-5.4,1.9-9,1.9c-5.2,0-9.5-1.4-12.8-4.3
		C104.2,393.9,102.5,390.1,102.5,385.5z M109.1,378.8h14.8c1.4,0,2.3-0.2,2.8-0.5c0.5-0.3,0.7-1,0.7-2c0-2.4-0.9-4.5-2.6-6.3
		c-1.8-1.8-3.9-2.7-6.5-2.7c-2.5,0-4.7,0.8-6.5,2.5c-1.8,1.7-2.7,3.7-2.7,6.2V378.8z"/>
	<path class="st0" d="M145.2,394.9c0-0.7,0.2-1.4,0.7-2c0.5-0.7,1-1,1.6-1c0.4,0,1,0.3,1.8,1c0.8,0.7,1.9,1.3,3.4,2
		c1.5,0.6,3.3,1,5.3,1c2.7,0,4.6-0.5,5.8-1.5c1.2-1,1.8-2.2,1.8-3.6c0-1.8-0.7-3.2-2-4.2c-1.3-1.1-3-1.8-4.9-2.4
		c-1.9-0.5-3.8-1.1-5.8-1.8c-1.9-0.6-3.5-1.7-4.9-3.2c-1.3-1.5-2-3.5-2-6c0-3,1.1-5.6,3.2-7.8c2.2-2.2,5.5-3.3,9.9-3.3
		c2.8,0,5.4,0.4,7.8,1.3c2.3,0.9,3.5,1.8,3.5,2.9c0,0.6-0.3,1.4-0.8,2.2c-0.5,0.8-1.1,1.2-1.9,1.2c-0.2,0-1.2-0.4-3.1-1.2
		s-3.7-1.2-5.5-1.2c-2.5,0-4.3,0.6-5.5,1.7c-1.2,1.2-1.8,2.5-1.8,3.9c0,1.5,0.7,2.7,2,3.6c1.3,0.9,3,1.5,4.9,2
		c1.9,0.5,3.9,1.1,5.8,1.8s3.5,1.9,4.9,3.6c1.3,1.7,2,3.9,2,6.6c0,3.3-1.2,5.9-3.5,7.8c-2.3,1.9-5.6,2.9-9.8,2.9
		c-3.6,0-6.7-0.7-9.3-2C146.5,397.7,145.2,396.3,145.2,394.9z"/>
	<path class="st0" d="M183.9,385.5v-8.4c0-4.1,1.6-7.7,4.7-10.6c3.1-3,6.9-4.5,11.2-4.5c4.2,0,7.8,1.4,10.8,4.2s4.6,6.3,4.6,10.5
		c0,1.6-0.2,2.8-0.6,3.8c-0.4,0.9-0.9,1.6-1.7,2c-0.8,0.4-1.5,0.7-2.2,0.8c-0.7,0.1-1.6,0.2-2.7,0.2h-17.5v2.4c0,2.9,1.1,5.3,3.2,7
		c2.1,1.8,4.8,2.6,8.2,2.6c1.8,0,3.3-0.3,4.6-0.8c1.3-0.5,2.4-1.1,3.2-1.6c0.8-0.5,1.4-0.8,1.9-0.8c0.7,0,1.4,0.3,1.9,1
		c0.5,0.7,0.8,1.3,0.8,2c0,1.2-1.2,2.5-3.6,3.8c-2.4,1.3-5.4,1.9-9,1.9c-5.2,0-9.5-1.4-12.8-4.3
		C185.5,393.9,183.9,390.1,183.9,385.5z M190.5,378.8h14.8c1.4,0,2.3-0.2,2.8-0.5c0.5-0.3,0.7-1,0.7-2c0-2.4-0.9-4.5-2.6-6.3
		c-1.8-1.8-3.9-2.7-6.5-2.7c-2.5,0-4.7,0.8-6.5,2.5c-1.8,1.7-2.7,3.7-2.7,6.2V378.8z"/>
	<path class="st0" d="M228.9,397.9v-33.2c0-0.7,0.3-1.3,0.9-1.7c0.6-0.4,1.4-0.6,2.4-0.6c0.9,0,1.6,0.2,2.2,0.6
		c0.6,0.4,0.9,1,0.9,1.7v3.8c1-1.8,2.4-3.4,4.2-4.7c1.9-1.3,3.9-1.9,6.2-1.9h2.7c0.7,0,1.3,0.3,1.8,0.9c0.5,0.6,0.8,1.3,0.8,2.1
		c0,0.8-0.3,1.5-0.8,2.1c-0.5,0.6-1.1,0.9-1.8,0.9h-2.7c-2.7,0-5.1,1.1-7.1,3.3c-2,2.2-3,5-3,8.5V398c0,0.6-0.3,1.1-1,1.6
		c-0.7,0.5-1.5,0.8-2.4,0.8c-0.9,0-1.7-0.2-2.3-0.7C229.2,399.1,228.9,398.6,228.9,397.9z"/>
	<path class="st0" d="M259.1,365.1c0-0.7,0.5-1.4,1.4-2c0.9-0.6,1.9-0.9,2.8-0.9c1.1,0,1.8,0.4,2.2,1.3l10.2,27.2l10-26.9
		c0.4-1.1,1.1-1.6,2.2-1.6c0.9,0,1.8,0.3,2.8,0.9c1,0.6,1.5,1.3,1.5,2c0,0.4-0.1,0.9-0.3,1.3l-13.1,33.2c-0.4,1-1.4,1.4-3,1.4
		c-1.7,0-2.7-0.5-3.1-1.4l-13.1-33.2C259.2,365.8,259.1,365.4,259.1,365.1z"/>
	<path class="st0" d="M302.7,385.5v-8.2c0-4.1,1.6-7.7,4.7-10.8c3.1-3.1,6.8-4.6,11.1-4.6c4.3,0,8,1.5,11.1,4.6
		c3.1,3,4.7,6.6,4.7,10.8v8.2c0,4.1-1.6,7.7-4.8,10.8c-3.2,3.1-6.9,4.7-11.1,4.7c-4.2,0-7.9-1.6-11-4.7
		C304.3,393.2,302.7,389.6,302.7,385.5z M309.4,385.4c0,2.5,0.9,4.7,2.7,6.6c1.8,1.9,3.9,2.9,6.4,2.9c2.5,0,4.7-1,6.5-2.9
		c1.8-1.9,2.7-4.1,2.7-6.6v-8.1c0-2.4-0.9-4.5-2.7-6.4c-1.8-1.9-4-2.9-6.5-2.9c-2.5,0-4.7,1-6.4,2.9c-1.8,1.9-2.7,4.1-2.7,6.4V385.4
		z"/>
	<path class="st0" d="M349.1,350.9c-0.8-0.8-1.2-1.7-1.2-2.7c0-1,0.4-1.9,1.2-2.6c0.8-0.7,1.8-1.1,3-1.1c1.1,0,2.1,0.4,2.9,1.1
		c0.8,0.7,1.2,1.6,1.2,2.6c0,1-0.4,1.9-1.2,2.7c-0.8,0.8-1.8,1.2-2.9,1.2S349.9,351.6,349.1,350.9z M348.7,397.9v-33.2
		c0-0.7,0.3-1.3,1-1.7c0.6-0.4,1.4-0.6,2.3-0.6c1,0,1.8,0.2,2.4,0.6c0.6,0.4,1,1,1,1.7v33.2c0,0.6-0.3,1.1-1,1.6
		c-0.7,0.5-1.5,0.8-2.4,0.8c-0.9,0-1.7-0.2-2.3-0.7C349.1,399.1,348.7,398.6,348.7,397.9z"/>
	<path class="st0" d="M371.2,397.9v-33.2c0-0.7,0.3-1.3,0.9-1.7c0.6-0.4,1.4-0.6,2.4-0.6c0.9,0,1.6,0.2,2.2,0.6
		c0.6,0.4,0.9,1,0.9,1.7v3.8c1-1.8,2.4-3.4,4.2-4.7c1.9-1.3,3.9-1.9,6.2-1.9h2.7c0.7,0,1.3,0.3,1.8,0.9c0.5,0.6,0.8,1.3,0.8,2.1
		c0,0.8-0.3,1.5-0.8,2.1c-0.5,0.6-1.1,0.9-1.8,0.9H388c-2.7,0-5.1,1.1-7.1,3.3c-2,2.2-3,5-3,8.5V398c0,0.6-0.3,1.1-1,1.6
		c-0.7,0.5-1.5,0.8-2.4,0.8c-0.9,0-1.7-0.2-2.3-0.7C371.5,399.1,371.2,398.6,371.2,397.9z"/>
</g>
</svg>
